<?xml version="1.0" encoding="UTF-8"?>
<svg version="1.1" xmlns="http://www.w3.org/2000/svg" width="371" height="239">
<path d="M0 0 C1.21875 1.625 1.21875 1.625 2.5 4 C5.76799187 9.76655781 9.48776647 15.14209893 13.3046875 20.55273438 C13.76746094 21.21466797 14.23023438 21.87660156 14.70703125 22.55859375 C15.33315308 23.44502563 15.33315308 23.44502563 15.97192383 24.34936523 C17 26 17 26 18 29 C16.02255295 28.99333817 16.02255295 28.99333817 14.00515747 28.98654175 C1.55842388 28.94593158 -10.8882962 28.91598483 -23.3350811 28.89637566 C-29.73350672 28.88595538 -36.13187869 28.87182821 -42.53027344 28.84912109 C-48.70943858 28.82733017 -54.88855223 28.81541817 -61.06775284 28.81024551 C-63.42075536 28.80656098 -65.77375519 28.79936607 -68.12673569 28.78853989 C-71.43204505 28.77394203 -74.73714386 28.77202554 -78.04248047 28.77294922 C-79.48934486 28.76216339 -79.48934486 28.76216339 -80.96543884 28.75115967 C-93.18307509 28.78790808 -104.11227493 31.11227493 -113 40 C-118.42504599 48.04959526 -120.29300461 55.92134763 -118.5390625 65.5234375 C-116.05521984 75.02048298 -111.32787258 80.65565046 -103.05078125 85.7734375 C-94.33282236 89.27848115 -85.09391052 89.26710755 -75.83203125 89.16015625 C-74.57763245 89.15459213 -73.32323364 89.14902802 -72.03082275 89.14329529 C-69.34661104 89.13092551 -66.6626749 89.11523307 -63.97854614 89.09375 C-56.92851714 89.03829132 -49.87833289 89.02138215 -42.828125 89.00390625 C-42.11971529 89.00186314 -41.41130558 88.99982002 -40.68142891 88.997715 C-26.47061372 88.95966506 -12.26956773 89.16704015 1.9375 89.5 C2.97490326 89.52409943 4.01230652 89.54819885 5.08114624 89.57302856 C10.72103315 89.70584943 16.36059766 89.84803159 22 90 C20.91775169 92.20370303 19.83120367 94.40511256 18.7421875 96.60546875 C18.29008911 97.52773254 18.29008911 97.52773254 17.82885742 98.46862793 C11.22716543 111.77283457 11.22716543 111.77283457 7 116 C5.58739692 116.10416139 4.16965285 116.13961177 2.75323486 116.14717102 C1.83667618 116.15432632 0.92011749 116.16148163 -0.0242157 116.16885376 C-1.03812881 116.17154266 -2.05204193 116.17423157 -3.09667969 116.17700195 C-4.15859024 116.18357315 -5.22050079 116.19014435 -6.31459045 116.19691467 C-9.85035262 116.21671885 -13.386072 116.22833144 -16.921875 116.23828125 C-18.73308208 116.24439454 -18.73308208 116.24439454 -20.58087921 116.25063133 C-26.98246593 116.27153105 -33.38403102 116.2858109 -39.78564453 116.29516602 C-46.37934882 116.30618602 -52.97271147 116.34052384 -59.56629562 116.38033772 C-64.648647 116.40658493 -69.73091842 116.41486549 -74.8133316 116.41844749 C-77.24202 116.42329936 -79.67070516 116.43487304 -82.09932709 116.45348549 C-101.97760461 116.59625025 -117.83063729 115.0027672 -133.125 100.97265625 C-144.10542431 89.42033484 -149.79131043 74.97818414 -150.4375 59.125 C-149.90579625 41.80995176 -142.84897166 27.29225236 -130.48095703 15.35742188 C-115.21865595 1.36823723 -97.71031132 0.25049134 -78.10546875 0.29296875 C-75.93832528 0.27982201 -73.77119399 0.26450879 -71.6040802 0.24714661 C-65.95170525 0.20759404 -60.29965271 0.1971263 -54.64715576 0.19311523 C-48.87079209 0.18373984 -43.09461489 0.14627375 -37.31835938 0.11132812 C-24.8789735 0.04069977 -12.43959837 0 0 0 Z " fill="#008DF2" transform="translate(155,87)"/>
<path d="M0 0 C2.79184669 -0.30762753 5.36349869 -0.41975418 8.15893555 -0.40405273 C9.00320099 -0.41091599 9.84746643 -0.41777924 10.71731567 -0.42485046 C13.52395224 -0.44322722 16.33003455 -0.4392602 19.13671875 -0.43359375 C21.09332969 -0.43815562 23.04993902 -0.44346121 25.00654602 -0.44947815 C29.12169872 -0.45843444 33.23665773 -0.45596374 37.35180664 -0.44604492 C42.58785438 -0.43464642 47.82321854 -0.45461237 53.05917645 -0.48396206 C57.10966659 -0.50246448 61.15999791 -0.50200228 65.21051979 -0.49632454 C67.13793701 -0.49617252 69.06536584 -0.50211633 70.99274254 -0.51461601 C82.76542083 -0.58011275 92.75435786 0.46185402 104 4 C105.66146453 4.35836365 107.32669025 4.70179979 109 5 C109 5.66 109 6.32 109 7 C109.680625 7.226875 110.36125 7.45375 111.0625 7.6875 C114.19163795 9.08562547 116.63923377 10.81090901 119.3515625 12.87890625 C121.12060315 14.19132292 121.12060315 14.19132292 124 15 C126.04804732 17.21720989 127.67780439 19.75783226 129.375 22.25 C130.11145752 23.33003296 130.11145752 23.33003296 130.86279297 24.43188477 C136.99732967 33.69501474 139.756981 41.81282904 141 53 C130.44 53 119.88 53 109 53 C107.02 48.05 107.02 48.05 105 43 C101.14616829 37.05306155 95.95129644 32.48911555 89.07809448 30.42198181 C84.92255437 29.57814995 80.67259145 29.5997467 76.4453125 29.44140625 C75.32440216 29.39915421 74.20349182 29.35690216 73.0486145 29.31336975 C55.61934977 28.73993347 38.17528415 28.88971263 20.73907471 28.93133545 C15.90417936 28.94174194 11.06927842 28.94616938 6.234375 28.95117188 C-3.17709754 28.96175466 -12.58854597 28.97871978 -22 29 C-22.33 28.34 -22.66 27.68 -23 27 C-22.01 26.67 -21.02 26.34 -20 26 C-19.34 25.01 -18.68 24.02 -18 23 C-17.42507812 22.44441406 -16.85015625 21.88882813 -16.2578125 21.31640625 C-13.12465827 18.10194179 -10.54162131 14.54165605 -7.875 10.9375 C-7.33746094 10.21755859 -6.79992187 9.49761719 -6.24609375 8.75585938 C-4.09807981 5.87130699 -1.995635 2.9934525 0 0 Z " fill="#192E44" transform="translate(228,87)"/>
<path d="M0 0 C1.51289503 0.00031716 3.0258126 0.01164445 4.53857422 0.03173828 C5.33480194 0.03456818 6.13102966 0.03739807 6.9513855 0.04031372 C9.49882935 0.05152438 12.04592383 0.07663016 14.59326172 0.10205078 C16.31851706 0.11207945 18.04377791 0.1212055 19.76904297 0.12939453 C24.00225086 0.15146656 28.23519702 0.18600212 32.46826172 0.22705078 C30.31404112 10.00449526 21.30673873 18.50970011 13.46826172 24.22705078 C-6.5946346 36.53361276 -29.24504447 34.37478362 -51.91064453 34.32470703 C-54.41983512 34.32283787 -56.92902608 34.32141632 -59.43821716 34.32041931 C-65.986003 34.31663336 -72.53376603 34.30683737 -79.08154297 34.29571533 C-85.78564002 34.28486133 -92.48974426 34.28090359 -99.19384766 34.27587891 C-112.30648749 34.26521091 -125.41911166 34.2483797 -138.53173828 34.22705078 C-138.53173828 30.25594833 -137.04522195 28.55892047 -134.90673828 25.22705078 C-132.2356461 21.05155037 -129.74982309 16.84725298 -127.38574219 12.48876953 C-126.84994537 11.50223389 -126.31414856 10.51569824 -125.76211548 9.49926758 C-125.356091 8.74943604 -124.95006653 7.99960449 -124.53173828 7.22705078 C-123.23263016 7.22340515 -121.93352203 7.21975952 -120.595047 7.21600342 C-108.31096716 7.17895175 -96.02713564 7.1210681 -83.74324512 7.04314804 C-77.42899904 7.00375484 -71.11489072 6.97152627 -64.80053711 6.95605469 C-58.69898702 6.94083453 -52.59781589 6.90629364 -46.49643517 6.85874176 C-44.17665603 6.84398319 -41.85682277 6.83601296 -39.53699684 6.83516693 C-25.21979677 6.82470074 -12.5595915 0.80743952 0 0 Z " fill="#182C41" transform="translate(330.53173828125,169.77294921875)"/>
<path d="M0 0 C0.88586288 -0.0033284 1.77172577 -0.0066568 2.68443298 -0.01008606 C4.56492595 -0.01515678 6.44542794 -0.01749434 8.32592773 -0.01733398 C11.17902916 -0.01950401 14.03173351 -0.03761217 16.88476562 -0.05664062 C18.71484243 -0.05957795 20.54492107 -0.06156048 22.375 -0.0625 C23.64114891 -0.07327827 23.64114891 -0.07327827 24.93287659 -0.08427429 C32.90620626 -0.05412742 41.04056158 0.61180314 47.15234375 6.16796875 C50.68768111 11.52709126 53.23930144 16.64622262 52.15234375 23.16796875 C50.165121 28.94090634 47.33231803 32.78106249 42.15234375 36.16796875 C36.75041007 37.79046519 32.03754746 38.42376575 26.36328125 38.43359375 C25.65636139 38.4355072 24.94944153 38.43742065 24.22109985 38.43939209 C22.7404952 38.44074187 21.25987821 38.43713069 19.77929688 38.42871094 C17.52577003 38.41796124 15.27303432 38.42866352 13.01953125 38.44140625 C11.57161284 38.44008507 10.12369493 38.43752352 8.67578125 38.43359375 C7.37560059 38.43133789 6.07541992 38.42908203 4.73583984 38.42675781 C1.1740861 38.16953892 -1.56992664 37.56667883 -4.84765625 36.16796875 C-6.22265625 34.04296875 -6.22265625 34.04296875 -6.84765625 32.16796875 C-7.50765625 32.16796875 -8.16765625 32.16796875 -8.84765625 32.16796875 C-13.84765625 26.69177827 -13.84765625 26.69177827 -13.84765625 24.16796875 C-14.83765625 23.83796875 -15.82765625 23.50796875 -16.84765625 23.16796875 C-18.69265023 21.29179177 -20.21601615 19.24059266 -21.84765625 17.16796875 C-20.06323907 14.51717827 -18.26892982 11.87323624 -16.47265625 9.23046875 C-15.96476563 8.47572266 -15.456875 7.72097656 -14.93359375 6.94335938 C-14.19882813 5.86538086 -14.19882813 5.86538086 -13.44921875 4.765625 C-12.99885254 4.10054932 -12.54848633 3.43547363 -12.08447266 2.75024414 C-9.10501939 -1.06140936 -4.40367918 0.00570977 0 0 Z " fill="#192E44" transform="translate(210.84765625,125.83203125)"/>
<path d="M0 0 C1.31478333 0.00212242 1.31478333 0.00212242 2.65612793 0.00428772 C5.42703821 0.00983857 8.19786457 0.02238164 10.96875 0.03515625 C12.85937382 0.04017761 14.74999893 0.0447394 16.640625 0.04882812 C21.25003183 0.05979185 25.85937673 0.077022 30.46875 0.09765625 C28.19136847 4.9160349 24.80386081 8.59293596 21.3671875 12.63671875 C19.26514885 14.8435672 19.26514885 14.8435672 19.46875 17.09765625 C20.85167019 18.49588596 20.85167019 18.49588596 22.71875 19.97265625 C26.63046324 23.30042669 30.3225508 26.79749775 33.96875 30.41015625 C34.50918945 30.93786621 35.04962891 31.46557617 35.60644531 32.00927734 C36.93401436 33.33300455 38.20660899 34.7114047 39.46875 36.09765625 C39.46875 36.75765625 39.46875 37.41765625 39.46875 38.09765625 C32.51280871 38.14859945 25.55691601 38.1834916 18.60083008 38.20751953 C16.23720502 38.21754243 13.87359225 38.23116431 11.51000977 38.24853516 C8.10169429 38.27294694 4.69354357 38.28417679 1.28515625 38.29296875 C0.23791885 38.30329132 -0.80931854 38.31361389 -1.88829041 38.32424927 C-10.51502384 38.32555197 -18.73527626 37.94535458 -25.53125 32.09765625 C-28.5247093 28.15434928 -30.43361775 24.07690123 -30.53125 19.09765625 C-29.11560394 11.33039469 -26.54162985 7.1325383 -20.21875 2.34765625 C-14.03349887 -0.52920474 -6.70221151 -0.04149412 0 0 Z " fill="#008EF4" transform="translate(140.53125,126.90234375)"/>
<path d="M0 0 C1 1 1 1 1.15234375 4.66796875 C1.07801784 11.25428759 0.29216716 17.77264595 -0.4375 24.3125 C-0.57220703 25.57384766 -0.70691406 26.83519531 -0.84570312 28.13476562 C-1.95277104 38.27118744 -1.95277104 38.27118744 -3 42 C-5.8125 42.625 -5.8125 42.625 -9 43 C-9.99 42.34 -10.98 41.68 -12 41 C-12.51635287 38.24212855 -12.8429998 35.67132669 -13.0546875 32.88671875 C-13.12414581 32.08015335 -13.19360413 31.27358795 -13.26516724 30.44258118 C-13.40810691 28.73418688 -13.54380846 27.02517396 -13.67285156 25.31567383 C-13.87357538 22.70602184 -14.10707702 20.10074833 -14.34375 17.49414062 C-14.47856187 15.83349443 -14.61143753 14.17268969 -14.7421875 12.51171875 C-14.84972855 11.3458448 -14.84972855 11.3458448 -14.95944214 10.15641785 C-15.27987831 5.50913677 -14.98686419 2.65369284 -12 -1 C-7.70332217 -2.79028243 -4.26134862 -1.47508221 0 0 Z " fill="#182C41" transform="translate(196,29)"/>
<path d="M0 0 C1.51953125 1.4765625 1.51953125 1.4765625 2.8125 3.625 C3.56466797 4.84896484 3.56466797 4.84896484 4.33203125 6.09765625 C6.5836697 10.01561262 8.81892535 13.94296359 11.01855469 17.89038086 C13.37060929 22.06226086 15.96008144 25.81038112 19.06640625 29.44921875 C19.37449219 29.96097656 19.68257812 30.47273438 20 31 C19 34 19 34 17.3125 35.25 C14.08770917 36.29587811 12.23842067 35.99135327 9 35 C7.0736794 33.38605572 5.62770008 31.88675049 4 30 C3.31808594 29.26136719 2.63617188 28.52273437 1.93359375 27.76171875 C-2.53095766 22.90434725 -6.69309213 17.94182683 -10.58984375 12.6171875 C-11.05519531 12.08351563 -11.52054688 11.54984375 -12 11 C-12.66 11 -13.32 11 -14 11 C-13.51946314 6.67516825 -12.34218019 4.76923502 -9 2 C-5.92861977 0.01846437 -3.63433694 -0.39018955 0 0 Z " fill="#192F46" transform="translate(155,43)"/>
<path d="M0 0 C4.98868763 0.69074136 8.039125 1.77603198 12 5 C12.98046875 6.74609375 12.98046875 6.74609375 13 9 C11.40897202 11.27806279 9.85741208 13.21084274 8 15.25 C7.23876831 16.11443726 7.23876831 16.11443726 6.4621582 16.99633789 C5.44687747 18.14746263 4.42652165 19.29413319 3.40087891 20.43603516 C1.63236658 22.41043215 -0.08786028 24.42477148 -1.8125 26.4375 C-2.87300569 27.62678138 -3.9353799 28.81440034 -5 30 C-5.51046875 30.59941406 -6.0209375 31.19882813 -6.546875 31.81640625 C-9.03067566 34.57547348 -10.46406864 35.91593234 -14.1875 36.5 C-17 36 -17 36 -20 34 C-19.36975879 30.82338817 -18.26936544 28.55749145 -16.5234375 25.83984375 C-16.02038086 25.0506958 -15.51732422 24.26154785 -14.99902344 23.44848633 C-14.4630957 22.61986084 -13.92716797 21.79123535 -13.375 20.9375 C-12.83391602 20.09147217 -12.29283203 19.24544434 -11.73535156 18.3737793 C-10.65685504 16.68818528 -9.57616864 15.00399017 -8.49316406 13.32128906 C-6.5664952 10.32606873 -4.65794682 7.31967544 -2.75 4.3125 C-1.83369301 2.8747707 -0.917199 1.4371604 0 0 Z " fill="#192E45" transform="translate(223,43)"/>
<path d="M0 0 C3.64576392 -0.05878077 7.29140352 -0.0938558 10.9375 -0.125 C12.46987305 -0.15013672 12.46987305 -0.15013672 14.03320312 -0.17578125 C22.61686834 -0.23062895 31.35754366 -0.03859667 38 6 C41.53533736 11.35912251 44.08695769 16.47825387 43 23 C41.01757244 28.75900744 38.19931616 32.66458964 33 36 C26.48676583 38.23178436 20.22014185 38.12262596 13.4375 37.625 C12.06754883 37.53992188 12.06754883 37.53992188 10.66992188 37.453125 C8.44562018 37.3133783 6.22275903 37.16217968 4 37 C4 36.67 4 36.34 4 36 C5.88332031 35.92652344 5.88332031 35.92652344 7.8046875 35.8515625 C22.82310644 36.0426712 22.82310644 36.0426712 36.0625 30.5 C40.18196391 25.1845627 39.55506777 19.51808153 39 13 C37.05852825 8.49578554 34.93698222 6.4810774 30.40991211 4.62890625 C24.78362276 3.16063339 18.845847 3.40969323 13.0625 3.3125 C11.69723375 3.27927987 10.33199787 3.24478596 8.96679688 3.20898438 C5.64461414 3.12681024 2.3226853 3.05755632 -1 3 C-0.67 2.01 -0.34 1.02 0 0 Z " fill="#13202E" transform="translate(220,126)"/>
<path d="M0 0 C29.37 0 58.74 0 89 0 C89 0.66 89 1.32 89 2 C87.37174789 2.0154612 87.37174789 2.0154612 85.71060181 2.03123474 C75.498163 2.12884332 65.28578683 2.23156532 55.07345009 2.33933926 C49.8227514 2.3945859 44.57204716 2.44800869 39.32128906 2.49731445 C34.25733858 2.54493231 29.19345726 2.59727417 24.12958908 2.65294075 C22.19424529 2.67337601 20.25888253 2.69208712 18.3235054 2.70907402 C15.62005988 2.73309213 12.91674578 2.76315019 10.21337891 2.79467773 C9.00389336 2.80331093 9.00389336 2.80331093 7.76997375 2.81211853 C3.75426995 2.77718743 3.75426995 2.77718743 0 4 C0 2.68 0 1.36 0 0 Z " fill="#141E2C" transform="translate(228,87)"/>
<path d="M0 0 C1.26473648 -0.00197891 1.26473648 -0.00197891 2.55502319 -0.0039978 C5.26198132 -0.00589637 7.96883387 0.00037707 10.67578125 0.0078125 C11.59269745 0.00869873 12.50961365 0.00958496 13.45431519 0.01049805 C26.65415546 0.02554769 39.81539678 0.21870899 52.98828125 1.1328125 C52.98828125 1.4628125 52.98828125 1.7928125 52.98828125 2.1328125 C48.52669262 2.27789227 44.06502512 2.42016784 39.60327148 2.56005859 C38.09152934 2.6078265 36.57980949 2.65630617 35.06811523 2.70556641 C21.41070045 3.14978368 7.83262159 3.26169003 -5.82421875 2.6328125 C-6.91025391 2.58511719 -7.99628906 2.53742188 -9.11523438 2.48828125 C-11.74751945 2.37232155 -14.37966137 2.25381184 -17.01171875 2.1328125 C-17.01171875 1.8028125 -17.01171875 1.4728125 -17.01171875 1.1328125 C-11.296252 0.31509921 -5.76926187 -0.01450655 0 0 Z " fill="#0B141F" transform="translate(210.01171875,200.8671875)"/>
<path d="M0 0 C0.556875 0.28875 1.11375 0.5775 1.6875 0.875 C6.02350366 2.98440719 9.47847819 4.247861 14.34106445 4.31884766 C15.3817659 4.33871735 16.42246735 4.35858704 17.4947052 4.37905884 C18.6063353 4.39061005 19.71796539 4.40216125 20.86328125 4.4140625 C22.01040085 4.43342865 23.15752045 4.4527948 24.33940125 4.4727478 C27.9970256 4.53244467 31.65468159 4.57889002 35.3125 4.625 C37.79493547 4.66318883 40.27735782 4.70224108 42.75976562 4.7421875 C48.83972712 4.83813819 54.91976789 4.92321478 61 5 C61.33 4.34 61.66 3.68 62 3 C62.66 4.32 63.32 5.64 64 7 C57.04405871 7.0509432 50.08816601 7.08583535 43.13208008 7.10986328 C40.76845502 7.11988618 38.40484225 7.13350806 36.04125977 7.15087891 C32.63294429 7.17529069 29.22479357 7.18652054 25.81640625 7.1953125 C24.76916885 7.20563507 23.72193146 7.21595764 22.64295959 7.22659302 C14.7693381 7.227782 6.47841764 7.01554914 0 2 C0 1.34 0 0.68 0 0 Z " fill="#037CDB" transform="translate(116,158)"/>
<path d="M0 0 C4.45297431 -0.2120464 7.87393702 0.27281084 12 2 C12.33 2.66 12.66 3.32 13 4 C13.70125 4.268125 14.4025 4.53625 15.125 4.8125 C18.28397763 6.11729511 20.64910997 7.81843905 23.3515625 9.87890625 C25.12060315 11.19132292 25.12060315 11.19132292 28 12 C29.30273438 13.47119141 29.30273438 13.47119141 30.59375 15.3515625 C31.06683594 16.03863281 31.53992188 16.72570312 32.02734375 17.43359375 C32.75630859 18.51833984 32.75630859 18.51833984 33.5 19.625 C33.98597656 20.32496094 34.47195313 21.02492188 34.97265625 21.74609375 C42.63624242 33.00133338 42.63624242 33.00133338 42 40 C39.84603593 37.53832677 38.8890338 35.65477183 37.875 32.5 C33.21540037 19.73364796 23.02845897 11.66027809 11.34375 5.62890625 C9.24923874 4.67590363 7.15300851 3.81017576 5 3 C3.989375 2.5875 2.97875 2.175 1.9375 1.75 C1.298125 1.5025 0.65875 1.255 0 1 C0 0.67 0 0.34 0 0 Z " fill="#0E1A26" transform="translate(324,90)"/>
<path d="M0 0 C-5.00308847 2.42043061 -9.22924172 3.50416126 -14.8125 3.6875 C-15.54098145 3.72020996 -16.26946289 3.75291992 -17.02001953 3.78662109 C-29.02259344 4.2706165 -41.0584277 4.47296927 -53 3 C-53 2.67 -53 2.34 -53 2 C-47.78272252 1.15100549 -42.71449863 0.81378267 -37.43359375 0.71875 C-36.63647476 0.70034058 -35.83935577 0.68193115 -35.01808167 0.66296387 C-31.63758537 0.58499109 -28.25691096 0.5167147 -24.8762207 0.44775391 C-22.39525467 0.39573404 -19.91444106 0.3386139 -17.43359375 0.28125 C-16.67719101 0.26767456 -15.92078827 0.25409912 -15.14146423 0.2401123 C-11.91355032 0.16492604 -8.84501234 -0.02692088 -5.66040039 -0.58007812 C-3 -1 -3 -1 0 0 Z " fill="#192633" transform="translate(329,200)"/>
<path d="M0 0 C0.99 0.66 1.98 1.32 3 2 C3 2.66 3 3.32 3 4 C-33.3 3.67 -69.6 3.34 -107 3 C-107 2.67 -107 2.34 -107 2 C-71.69 2 -36.38 2 0 2 C0 1.34 0 0.68 0 0 Z " fill="#0265CB" transform="translate(170,112)"/>
<path d="M0 0 C0.66 0 1.32 0 2 0 C0.56023485 3.1503772 -1.2083515 5.67851605 -3.375 8.375 C-6.15237081 11.83753718 -8.51252436 15.26878654 -11 19 C-4.4 19.33 2.2 19.66 9 20 C4.87445092 23.09416181 4.34329024 23.37238817 -0.421875 23.29296875 C-1.95908203 23.2784668 -1.95908203 23.2784668 -3.52734375 23.26367188 C-4.59082031 23.23853516 -5.65429688 23.21339844 -6.75 23.1875 C-8.36841797 23.16719727 -8.36841797 23.16719727 -10.01953125 23.14648438 C-12.6801942 23.11116584 -15.33984296 23.06184199 -18 23 C-18.33 22.34 -18.66 21.68 -19 21 C-18.01 20.67 -17.02 20.34 -16 20 C-15.34 19.01 -14.68 18.02 -14 17 C-13.40445313 16.41734375 -12.80890625 15.8346875 -12.1953125 15.234375 C-8.93502004 11.91607022 -6.28505369 8.1698107 -3.53515625 4.42578125 C-2.4017383 2.91569872 -1.20543484 1.45324201 0 0 Z " fill="#101C2A" transform="translate(224,93)"/>
<path d="M0 0 C16.83 0 33.66 0 51 0 C51.495 0.99 51.495 0.99 52 2 C51.42967041 1.99476318 50.85934082 1.98952637 50.27172852 1.98413086 C47.70199677 1.96341779 45.13228253 1.9503581 42.5625 1.9375 C41.66466797 1.92912109 40.76683594 1.92074219 39.84179688 1.91210938 C38.98779297 1.90888672 38.13378906 1.90566406 37.25390625 1.90234375 C36.06776733 1.89448853 36.06776733 1.89448853 34.85766602 1.88647461 C32.98407311 1.79504091 32.98407311 1.79504091 32 3 C27.5893955 3.25498539 23.16709323 3.18523482 18.75 3.1875 C16.88794922 3.20586914 16.88794922 3.20586914 14.98828125 3.22460938 C13.79074219 3.22654297 12.59320313 3.22847656 11.359375 3.23046875 C10.26077148 3.23457764 9.16216797 3.23868652 8.03027344 3.24291992 C4.96407889 2.99712041 2.77016172 2.29855351 0 1 C0 0.67 0 0.34 0 0 Z " fill="#07111B" transform="translate(262,113)"/>
<path d="M0 0 C0.88076706 0.00141495 1.76153412 0.0028299 2.66899109 0.00428772 C5.47076878 0.00986688 8.27246537 0.02241554 11.07421875 0.03515625 C12.97851447 0.04017394 14.88281144 0.04473638 16.78710938 0.04882812 C21.44534356 0.05982948 26.10351742 0.07707976 30.76171875 0.09765625 C30.10171875 1.41765625 29.44171875 2.73765625 28.76171875 4.09765625 C28.26671875 3.10765625 28.26671875 3.10765625 27.76171875 2.09765625 C13.90171875 2.09765625 0.04171875 2.09765625 -14.23828125 2.09765625 C-14.23828125 1.76765625 -14.23828125 1.43765625 -14.23828125 1.09765625 C-9.48790458 -0.12266273 -4.86661861 -0.02958036 0 0 Z " fill="#077BD8" transform="translate(140.23828125,126.90234375)"/>
<path d="M0 0 C11.55 0 23.1 0 35 0 C35.495 1.485 35.495 1.485 36 3 C31.5159659 3.04951788 27.03207761 3.08577526 22.54785156 3.10986328 C21.02308377 3.11990744 19.49833516 3.13354531 17.97363281 3.15087891 C15.77924862 3.17519738 13.58511958 3.18649889 11.390625 3.1953125 C9.4111084 3.21102295 9.4111084 3.21102295 7.39160156 3.22705078 C4.26779441 3.0179275 2.59419762 2.66605136 0 1 C0 0.67 0 0.34 0 0 Z " fill="#192A3D" transform="translate(208,161)"/>
<path d="M0 0 C4.98243747 0.47451785 8.1102747 1.83394453 12 5 C12.80786133 6.94116211 12.80786133 6.94116211 13 9 C11.30292531 11.37235049 9.64254557 13.42469494 7.6875 15.5625 C3.62260886 20.10366585 3.62260886 20.10366585 0 25 C-0.99 24.67 -1.98 24.34 -3 24 C-2.31292969 23.27554688 -1.62585938 22.55109375 -0.91796875 21.8046875 C-0.00745088 20.82846215 0.9026851 19.85188053 1.8125 18.875 C2.70582031 17.92367187 3.59914062 16.97234375 4.51953125 15.9921875 C6.91250898 13.10554035 8.4768895 10.41055309 10 7 C6.91440696 4.73118159 5.57790624 3.94548054 1.6875 4.3125 C0.3571875 4.6528125 0.3571875 4.6528125 -1 5 C-0.67 3.35 -0.34 1.7 0 0 Z " fill="#162937" transform="translate(223,43)"/>
<path d="M0 0 C23.5926187 -1.29301873 23.5926187 -1.29301873 33 6 C35.65533997 8.4637175 38.04370753 10.94157093 40 14 C40 14.66 40 15.32 40 16 C39.34 16 38.68 16 38 16 C36.889318 14.79260954 35.83534451 13.53265169 34.8125 12.25 C30.15929963 6.77279539 25.08745973 3.47518366 17.80175781 2.79467773 C16.63918457 2.73969116 16.63918457 2.73969116 15.453125 2.68359375 C14.60878906 2.64169922 13.76445312 2.59980469 12.89453125 2.55664062 C12.02183594 2.51732422 11.14914062 2.47800781 10.25 2.4375 C9.36183594 2.39431641 8.47367187 2.35113281 7.55859375 2.30664062 C5.37254037 2.20086385 3.18637911 2.09877454 1 2 C0.67 1.34 0.34 0.68 0 0 Z " fill="#14222D" transform="translate(295,114)"/>
<path d="M0 0 C0.66 0 1.32 0 2 0 C2.33 2.97 2.66 5.94 3 9 C-7.23 9 -17.46 9 -28 9 C-27.67 8.01 -27.34 7.02 -27 6 C-13.14 6.495 -13.14 6.495 1 7 C0.67 4.69 0.34 2.38 0 0 Z " fill="#09121C" transform="translate(366,131)"/>
<path d="M0 0 C2.828125 0.21484375 2.828125 0.21484375 6 1 C7.546875 2.94140625 7.546875 2.94140625 8.75 5.5625 C11.6753632 11.53871114 15.1261351 17.00472796 18.83691406 22.51586914 C22.08261807 27.52079409 22.08261807 27.52079409 21.61743164 30.21899414 C21.4136792 30.80672607 21.20992676 31.39445801 21 32 C20.443125 31.06800781 19.88625 30.13601562 19.3125 29.17578125 C18.54177529 27.88795582 17.77093322 26.60020062 17 25.3125 C16.59789307 24.64001221 16.19578613 23.96752441 15.78149414 23.2746582 C13.75438169 19.89269606 11.71229696 16.52246402 9.62109375 13.1796875 C9.25306641 12.59018311 8.88503906 12.00067871 8.50585938 11.39331055 C7.48533463 9.76387582 6.45959046 8.13771353 5.43359375 6.51171875 C4 4 4 4 4 2 C2.68 2 1.36 2 0 2 C0 1.34 0 0.68 0 0 Z " fill="#111B27" transform="translate(151,44)"/>
<path d="M0 0 C0.66 0 1.32 0 2 0 C0.29763764 3.75180831 -2.00252547 6.39511164 -4.7578125 9.4140625 C-6.20554064 10.92666909 -6.20554064 10.92666909 -6 13 C-4.51638306 14.50049936 -4.51638306 14.50049936 -2.5625 16.0625 C2.22341701 20.12068366 6.6114377 24.52000931 11 29 C8 29 8 29 6.01953125 27.27734375 C5.29121094 26.50519531 4.56289062 25.73304688 3.8125 24.9375 C-0.26987008 20.70789691 -4.51728383 16.79870498 -9 13 C-7.51516897 9.76306836 -5.67292565 7.0674375 -3.5 4.25 C-2.8915625 3.45078125 -2.283125 2.6515625 -1.65625 1.828125 C-1.1096875 1.22484375 -0.563125 0.6215625 0 0 Z " fill="#0773CD" transform="translate(166,131)"/>
<path d="M0 0 C8.91 0 17.82 0 27 0 C22.49223114 3.38082665 22.49223114 3.38082665 18.33984375 3.3984375 C17.46392578 3.40230469 16.58800781 3.40617187 15.68554688 3.41015625 C14.77869141 3.39855469 13.87183594 3.38695313 12.9375 3.375 C11.57141602 3.39240234 11.57141602 3.39240234 10.17773438 3.41015625 C8.86579102 3.40435547 8.86579102 3.40435547 7.52734375 3.3984375 C6.33226196 3.39336182 6.33226196 3.39336182 5.11303711 3.38818359 C3 3 3 3 0 0 Z " fill="#0C1C26" transform="translate(234,113)"/>
<path d="M0 0 C-0.33 0.66 -0.66 1.32 -1 2 C-6.28 2 -11.56 2 -17 2 C-17.33 3.65 -17.66 5.3 -18 7 C-19.806087 9.02621949 -21.80417159 10.36480863 -24 12 C-23.36884161 8.84420806 -22.27895408 6.52724785 -20.5625 3.8125 C-20.13066406 3.11769531 -19.69882813 2.42289063 -19.25390625 1.70703125 C-15.39873101 -3.54129142 -5.61171214 -0.95518505 0 0 Z " fill="#101D32" transform="translate(218,127)"/>
<path d="M0 0 C0.66796875 1.7734375 0.66796875 1.7734375 1 4 C-0.07421875 5.8515625 -0.07421875 5.8515625 -1.6875 7.625 C-2.46673828 8.51058594 -2.46673828 8.51058594 -3.26171875 9.4140625 C-8.328702 14.03697306 -14.46744082 14.13548121 -21.05859375 13.87890625 C-22.85195684 13.78036982 -24.64494469 13.67477668 -26.4375 13.5625 C-27.35982422 13.51029297 -28.28214844 13.45808594 -29.23242188 13.40429688 C-31.48871536 13.27569984 -33.74444029 13.1407929 -36 13 C-36 12.67 -36 12.34 -36 12 C-34.11667969 11.92652344 -34.11667969 11.92652344 -32.1953125 11.8515625 C-17.25314532 12.02985197 -17.25314532 12.02985197 -4 6.625 C-2.33967048 4.44581751 -1.02998388 2.52814225 0 0 Z " fill="#101925" transform="translate(260,150)"/>
<path d="M0 0 C2.15661911 2.76198588 3.92143519 5.56655324 5.625 8.625 C9.99954506 16.01798116 15.92955608 21.98449222 22 28 C15.22280333 26.68590304 11.18798559 21.52240375 7.3125 16.125 C0 5.20565878 0 5.20565878 0 0 Z " fill="#0474D5" transform="translate(9,165)"/>
<path d="M0 0 C0.66 0.33 1.32 0.66 2 1 C1.01 2.485 1.01 2.485 0 4 C0 4.99 0 5.98 0 7 C4.74169635 6.72107669 6.66388455 4.64603976 9.66796875 1.27734375 C11 0 11 0 13 0 C11.40381377 4.15008419 8.56845218 7.4016944 5 10 C0.81857078 10.65591047 -0.44999856 10.36666763 -4 8 C-3.40072174 4.64404172 -2.15377564 2.62198774 0 0 Z " fill="#111D2A" transform="translate(207,69)"/>
<path d="M0 0 C0.65597672 0.00141495 1.31195343 0.0028299 1.98780823 0.00428772 C4.05572327 0.00982594 6.12352467 0.02236623 8.19140625 0.03515625 C9.60481613 0.04017926 11.01822773 0.04474075 12.43164062 0.04882812 C15.87243193 0.05977499 19.31315797 0.07699587 22.75390625 0.09765625 C22.75390625 0.42765625 22.75390625 0.75765625 22.75390625 1.09765625 C18.65100571 1.46760104 14.54651527 1.81565603 10.44140625 2.16015625 C9.29349609 2.26392578 8.14558594 2.36769531 6.96289062 2.47460938 C-0.25263309 3.06738611 -7.06399385 3.03674883 -14.24609375 2.09765625 C-14.24609375 1.76765625 -14.24609375 1.43765625 -14.24609375 1.09765625 C-9.44614172 0.31964944 -4.86047311 -0.0208604 0 0 Z " fill="#09111E" transform="translate(290.24609375,200.90234375)"/>
<path d="M0 0 C11.020633 -0.20535341 21.99852423 0.41869661 33 1 C33 1.33 33 1.66 33 2 C28.78317252 2.21721322 24.56603409 2.41403398 20.34741211 2.59204102 C18.91258349 2.65545437 17.47798927 2.72442591 16.04370117 2.79907227 C13.98132213 2.90543934 11.91892477 2.99175714 9.85546875 3.07421875 C8.61434326 3.13182373 7.37321777 3.18942871 6.09448242 3.2487793 C3 3 3 3 1.0715332 1.49536133 C0.71792725 1.00189209 0.36432129 0.50842285 0 0 Z " fill="#080E17" transform="translate(230,201)"/>
<path d="M0 0 C0.66 0 1.32 0 2 0 C0.4801342 3.96409444 -1.90150936 5.6971501 -5.3125 8.125 C-6.25738281 8.80820313 -7.20226562 9.49140625 -8.17578125 10.1953125 C-14.50839866 14.2418813 -14.50839866 14.2418813 -18.3125 13.625 C-18.869375 13.41875 -19.42625 13.2125 -20 13 C-18.97519531 12.48050781 -17.95039063 11.96101562 -16.89453125 11.42578125 C-15.53359757 10.72185004 -14.17293473 10.01739502 -12.8125 9.3125 C-12.13896484 8.97283203 -11.46542969 8.63316406 -10.77148438 8.28320312 C-6.44808325 6.02659864 -3.40532781 3.5547389 0 0 Z " fill="#101A25" transform="translate(350,185)"/>
<path d="M0 0 C3.40414403 1.13471468 4.24276648 2.17225987 6.5 4.875 C10.79744049 10.41577693 10.79744049 10.41577693 17 13 C17 13.66 17 14.32 17 15 C11.56192751 14.62059959 9.53639112 13.06684979 6 9 C5.45730469 8.40058594 4.91460937 7.80117187 4.35546875 7.18359375 C0 2.29771663 0 2.29771663 0 0 Z " fill="#132332" transform="translate(153,64)"/>
<path d="M0 0 C0.33 0 0.66 0 1 0 C2.21825857 5.9172559 2.33647378 11.85751516 2.5625 17.875 C2.60568359 18.94492187 2.64886719 20.01484375 2.69335938 21.1171875 C2.79892817 23.74467754 2.90103791 26.37225422 3 29 C2.67 29 2.34 29 2 29 C-0.40337709 19.54671677 -2.02152727 9.65840806 0 0 Z " fill="#09111B" transform="translate(183,38)"/>
<path d="M0 0 C0.66 0 1.32 0 2 0 C0.65254881 4.68098928 -1.27223729 8.28604144 -4 12.3125 C-4.70125 13.36050781 -5.4025 14.40851562 -6.125 15.48828125 C-8 18 -8 18 -10 19 C-9.05207832 14.52743787 -6.90389908 11.12668266 -4.5625 7.25 C-3.95051758 6.20392578 -3.95051758 6.20392578 -3.32617188 5.13671875 C-2.27692374 3.3874013 -1.14456305 1.68849301 0 0 Z " fill="#0D1A26" transform="translate(219,49)"/>
<path d="M0 0 C5.28 0 10.56 0 16 0 C11.7952889 3.15353333 11.14908143 3.36246719 6.25 3.1875 C5.26515625 3.16042969 4.2803125 3.13335937 3.265625 3.10546875 C2.51796875 3.07066406 1.7703125 3.03585938 1 3 C0.67 2.01 0.34 1.02 0 0 Z " fill="#061019" transform="translate(217,113)"/>
<path d="M0 0 C0.33 0.99 0.66 1.98 1 3 C-0.57871821 5.20430375 -2.14761637 7.16942403 -3.9375 9.1875 C-4.41896484 9.74630859 -4.90042969 10.30511719 -5.39648438 10.88085938 C-6.58857598 12.26179717 -7.79314375 13.63194679 -9 15 C-9.99 14.67 -10.98 14.34 -12 14 C-11.30132812 13.24074219 -10.60265625 12.48148438 -9.8828125 11.69921875 C-8.96343578 10.69540947 -8.04417079 9.69149785 -7.125 8.6875 C-6.66480469 8.18798828 -6.20460937 7.68847656 -5.73046875 7.17382812 C-3.61393392 4.85790957 -1.74473617 2.61710426 0 0 Z " fill="#0E161F" transform="translate(232,53)"/>
<path d="M0 0 C1.32 0.33 2.64 0.66 4 1 C3.34 1.66 2.68 2.32 2 3 C1.35232207 5.57061311 1.35232207 5.57061311 1 8 C1.66 8 2.32 8 3 8 C3 8.66 3 9.32 3 10 C1.02 9.34 -0.96 8.68 -3 8 C-2.45276317 4.62537285 -1.9451 2.91765 0 0 Z " fill="#122535" transform="translate(144,46)"/>
<path d="M0 0 C3.91939465 3.80411834 7.49102731 7.81576108 11 12 C8 12 8 12 5.8125 10.125 C4 8 4 8 4 6 C3.01 5.67 2.02 5.34 1 5 C0.67 3.35 0.34 1.7 0 0 Z " fill="#0E1A2A" transform="translate(193,144)"/>
<path d="M0 0 C0 3.88091967 -1.65317733 6.39673296 -3.5 9.6875 C-3.83386719 10.29400391 -4.16773438 10.90050781 -4.51171875 11.52539062 C-5.335537 13.02003231 -6.16703451 14.51043671 -7 16 C-8.17114775 13.14998148 -8.05939414 12.14331623 -6.85546875 9.23828125 C-6.30503906 8.27277344 -5.75460938 7.30726563 -5.1875 6.3125 C-4.64480469 5.33925781 -4.10210937 4.36601562 -3.54296875 3.36328125 C-2 1 -2 1 0 0 Z " fill="#0F1D2D" transform="translate(204,183)"/>
<path d="M0 0 C6.27659574 1.27659574 6.27659574 1.27659574 8 3 C8.07179964 4.51928038 8.08392007 6.04167482 8.0625 7.5625 C8.05347656 8.38878906 8.04445312 9.21507812 8.03515625 10.06640625 C8.02355469 10.70449219 8.01195312 11.34257813 8 12 C7.67 12 7.34 12 7 12 C7 9.36 7 6.72 7 4 C3.37 3.67 -0.26 3.34 -4 3 C-2.68 2.01 -1.36 1.02 0 0 Z " fill="#1E293A" transform="translate(189,27)"/>
<path d="M0 0 C-2.16402149 1.916517 -3.46722749 2.94435269 -6.38183594 3.2487793 C-7.24067383 3.19117432 -8.09951172 3.13356934 -8.984375 3.07421875 C-9.91894531 3.01943359 -10.85351562 2.96464844 -11.81640625 2.90820312 C-12.78449219 2.83537109 -13.75257813 2.76253906 -14.75 2.6875 C-15.73355469 2.62626953 -16.71710938 2.56503906 -17.73046875 2.50195312 C-20.15495584 2.34895151 -22.57748027 2.18114966 -25 2 C-25 1.67 -25 1.34 -25 1 C-21.95843125 0.83135856 -18.91676547 0.66502247 -15.875 0.5 C-15.0190625 0.45230469 -14.163125 0.40460938 -13.28125 0.35546875 C-8.84778214 0.11674356 -4.44201651 -0.05825595 0 0 Z " fill="#040810" transform="translate(249,161)"/>
<path d="M0 0 C-0.33 0.66 -0.66 1.32 -1 2 C-2.77049689 2.05410687 -4.54146849 2.09284119 -6.3125 2.125 C-7.79169922 2.15980469 -7.79169922 2.15980469 -9.30078125 2.1953125 C-12 2 -12 2 -15 0 C-9.65370398 -1.0024305 -5.37625234 -0.84888195 0 0 Z " fill="#050C15" transform="translate(218,127)"/>
<path d="M0 0 C-1.55500981 3.81684226 -4.03595495 6.19195732 -7 9 C-7.99 8.67 -8.98 8.34 -10 8 C-8.71451591 6.66070495 -7.42141845 5.32871357 -6.125 4 C-5.04605469 2.88625 -5.04605469 2.88625 -3.9453125 1.75 C-2 0 -2 0 0 0 Z " fill="#0C1420" transform="translate(220,69)"/>
<path d="M0 0 C0.99 0.66 1.98 1.32 3 2 C3 2.66 3 3.32 3 4 C-2.94 3.67 -8.88 3.34 -15 3 C-15 2.67 -15 2.34 -15 2 C-10.05 2 -5.1 2 0 2 C0 1.34 0 0.68 0 0 Z " fill="#0A6EC6" transform="translate(170,112)"/>
<path d="M0 0 C1.32 0 2.64 0 4 0 C4 0.66 4 1.32 4 2 C7.96 2 11.92 2 16 2 C16 2.33 16 2.66 16 3 C10.39 3 4.78 3 -1 3 C-0.67 2.01 -0.34 1.02 0 0 Z " fill="#08111E" transform="translate(220,126)"/>
<path d="M0 0 C0.33 0 0.66 0 1 0 C2.28571429 7.42857143 2.28571429 7.42857143 1 11 C-0.98 11.33 -2.96 11.66 -5 12 C-5 11.34 -5 10.68 -5 10 C-3.68 10 -2.36 10 -1 10 C-0.67 6.7 -0.34 3.4 0 0 Z " fill="#0B131F" transform="translate(192,60)"/>
<path d="M0 0 C0.66 0 1.32 0 2 0 C2.09038099 5.15171623 1.84681133 9.91913204 1 15 C0.67 15 0.34 15 0 15 C-0.19517554 13.06325815 -0.38087873 11.12555991 -0.5625 9.1875 C-0.66691406 8.10855469 -0.77132812 7.02960937 -0.87890625 5.91796875 C-1 3 -1 3 0 0 Z " fill="#182636" transform="translate(182,30)"/>
<path d="M0 0 C2.97 0.495 2.97 0.495 6 1 C6 1.66 6 2.32 6 3 C3.69 3.66 1.38 4.32 -1 5 C-0.67 3.35 -0.34 1.7 0 0 Z " fill="#15212B" transform="translate(223,43)"/>
<path d="M0 0 C0.33 0.99 0.66 1.98 1 3 C0.00390625 4.82421875 0.00390625 4.82421875 -1.4375 6.6875 C-1.91058594 7.31011719 -2.38367188 7.93273437 -2.87109375 8.57421875 C-3.24363281 9.04472656 -3.61617188 9.51523438 -4 10 C-4.99 9.67 -5.98 9.34 -7 9 C-6.57847656 8.51789063 -6.15695312 8.03578125 -5.72265625 7.5390625 C-5.17480469 6.90742188 -4.62695312 6.27578125 -4.0625 5.625 C-3.51722656 4.99851563 -2.97195313 4.37203125 -2.41015625 3.7265625 C-0.93041376 2.04367666 -0.93041376 2.04367666 0 0 Z " fill="#0D1720" transform="translate(359,174)"/>
<path d="M0 0 C6.75 -0.125 6.75 -0.125 9 1 C9 1.66 9 2.32 9 3 C2.84765625 2.4140625 2.84765625 2.4140625 1 2 C0.67 1.34 0.34 0.68 0 0 Z " fill="#0C1323" transform="translate(208,161)"/>
<path d="M0 0 C4.67461851 -0.32613618 7.16674383 0.29417212 11 3 C7.59068103 4.13643966 6.99664544 3.86747764 3.8125 2.5625 C3.09707031 2.27503906 2.38164062 1.98757812 1.64453125 1.69140625 C1.10183594 1.46324219 0.55914062 1.23507813 0 1 C0 0.67 0 0.34 0 0 Z " fill="#0D1822" transform="translate(324,90)"/>
<path d="M0 0 C4.0042343 3.49087093 5.62671065 5.64951939 6 11 C2.90407165 7.4912812 1.25805377 4.50802601 0 0 Z " fill="#0B1421" transform="translate(167,65)"/>
<path d="M0 0 C0.33 0 0.66 0 1 0 C1.2475 0.94875 1.495 1.8975 1.75 2.875 C2.6857077 6.08693191 2.6857077 6.08693191 5.125 7.375 C5.74375 7.58125 6.3625 7.7875 7 8 C5.0085944 8.38133299 3.00720923 8.71325582 1 9 C0 8 0 8 -0.09765625 6.15234375 C-0.06510417 4.1015625 -0.03255208 2.05078125 0 0 Z " fill="#172838" transform="translate(184,62)"/>
<path d="M0 0 C0 0.66 0 1.32 0 2 C-2.64 2.33 -5.28 2.66 -8 3 C-6.14481495 -0.71037009 -3.79223618 -1.26407873 0 0 Z " fill="#131C2E" transform="translate(324,174)"/>
<path d="M0 0 C0.66 0 1.32 0 2 0 C3.125 2.8125 3.125 2.8125 4 6 C3.01 7.485 3.01 7.485 2 9 C1.34 6.03 0.68 3.06 0 0 Z " fill="#172433" transform="translate(335,131)"/>
<path d="M0 0 C0.99 1.485 0.99 1.485 2 3 C1.34 3 0.68 3 0 3 C0 2.01 0 1.02 0 0 Z " fill="#153535" transform="translate(369,190)"/>
<path d="M0 0 C0.99 0.33 1.98 0.66 3 1 C2.01 1 1.02 1 0 1 C0 0.67 0 0.34 0 0 Z " fill="#001F5F" transform="translate(321,120)"/>
<path d="M0 0 C3 1 3 1 3 1 Z " fill="#000000" transform="translate(225,41)"/>
<path d="M0 0 C2 1 2 1 2 1 Z " fill="#00BFFF" transform="translate(43,202)"/>
<path d="M0 0 C2 1 2 1 2 1 Z " fill="#000000" transform="translate(259,175)"/>
<path d="M0 0 C2 1 2 1 2 1 Z " fill="#003F3F" transform="translate(257,174)"/>
<path d="" fill="#0000FF" transform="translate(0,0)"/>
<path d="" fill="#000000" transform="translate(0,0)"/>
<path d="" fill="#003F3F" transform="translate(0,0)"/>
<path d="" fill="#00FFFF" transform="translate(0,0)"/>
<path d="" fill="#000000" transform="translate(0,0)"/>
<path d="" fill="#000000" transform="translate(0,0)"/>
<path d="" fill="#00FFFF" transform="translate(0,0)"/>
<path d="" fill="#000000" transform="translate(0,0)"/>
<path d="" fill="#007FFF" transform="translate(0,0)"/>
<path d="" fill="#0000FF" transform="translate(0,0)"/>
<path d="" fill="#000000" transform="translate(0,0)"/>
<path d="" fill="#000000" transform="translate(0,0)"/>
<path d="" fill="#000000" transform="translate(0,0)"/>
<path d="" fill="#007F7F" transform="translate(0,0)"/>
<path d="" fill="#000000" transform="translate(0,0)"/>
<path d="" fill="#007F7F" transform="translate(0,0)"/>
<path d="" fill="#000000" transform="translate(0,0)"/>
<path d="" fill="#000000" transform="translate(0,0)"/>
<path d="" fill="#007F7F" transform="translate(0,0)"/>
<path d="" fill="#000000" transform="translate(0,0)"/>
<path d="" fill="#000000" transform="translate(0,0)"/>
<path d="" fill="#0000FF" transform="translate(0,0)"/>
<path d="" fill="#000000" transform="translate(0,0)"/>
<path d="" fill="#00FFFF" transform="translate(0,0)"/>
<path d="" fill="#000000" transform="translate(0,0)"/>
<path d="" fill="#00FFFF" transform="translate(0,0)"/>
<path d="" fill="#00FFFF" transform="translate(0,0)"/>
<path d="" fill="#00FFFF" transform="translate(0,0)"/>
<path d="" fill="#0000FF" transform="translate(0,0)"/>
<path d="" fill="#007FFF" transform="translate(0,0)"/>
<path d="" fill="#0000FF" transform="translate(0,0)"/>
<path d="" fill="#00007F" transform="translate(0,0)"/>
<path d="" fill="#000000" transform="translate(0,0)"/>
<path d="" fill="#0000FF" transform="translate(0,0)"/>
<path d="" fill="#000000" transform="translate(0,0)"/>
<path d="" fill="#000000" transform="translate(0,0)"/>
<path d="" fill="#007FFF" transform="translate(0,0)"/>
<path d="" fill="#000000" transform="translate(0,0)"/>
<path d="" fill="#000000" transform="translate(0,0)"/>
<path d="" fill="#007F7F" transform="translate(0,0)"/>
<path d="" fill="#007F7F" transform="translate(0,0)"/>
<path d="" fill="#000000" transform="translate(0,0)"/>
<path d="" fill="#555555" transform="translate(0,0)"/>
<path d="" fill="#00FFFF" transform="translate(0,0)"/>
<path d="" fill="#007F7F" transform="translate(0,0)"/>
<path d="" fill="#007F7F" transform="translate(0,0)"/>
<path d="" fill="#00FFFF" transform="translate(0,0)"/>
<path d="" fill="#000000" transform="translate(0,0)"/>
<path d="" fill="#007FFF" transform="translate(0,0)"/>
<path d="" fill="#000000" transform="translate(0,0)"/>
<path d="" fill="#007F7F" transform="translate(0,0)"/>
<path d="" fill="#007F7F" transform="translate(0,0)"/>
<path d="" fill="#007F7F" transform="translate(0,0)"/>
<path d="" fill="#000000" transform="translate(0,0)"/>
<path d="" fill="#333366" transform="translate(0,0)"/>
<path d="" fill="#000000" transform="translate(0,0)"/>
<path d="" fill="#007F7F" transform="translate(0,0)"/>
<path d="" fill="#0000FF" transform="translate(0,0)"/>
<path d="" fill="#000000" transform="translate(0,0)"/>
<path d="" fill="#000000" transform="translate(0,0)"/>
<path d="" fill="#00FFFF" transform="translate(0,0)"/>
<path d="" fill="#000000" transform="translate(0,0)"/>
<path d="" fill="#3F3F3F" transform="translate(0,0)"/>
<path d="" fill="#007F7F" transform="translate(0,0)"/>
<path d="" fill="#007F7F" transform="translate(0,0)"/>
<path d="" fill="#000000" transform="translate(0,0)"/>
<path d="" fill="#000000" transform="translate(0,0)"/>
<path d="" fill="#0000FF" transform="translate(0,0)"/>
<path d="" fill="#000000" transform="translate(0,0)"/>
<path d="" fill="#000000" transform="translate(0,0)"/>
<path d="" fill="#7F7F7F" transform="translate(0,0)"/>
<path d="" fill="#7F7F7F" transform="translate(0,0)"/>
<path d="" fill="#000000" transform="translate(0,0)"/>
<path d="" fill="#5555AA" transform="translate(0,0)"/>
<path d="" fill="#000000" transform="translate(0,0)"/>
<path d="" fill="#7F7F7F" transform="translate(0,0)"/>
</svg>
